<svg width="3832" height="1163" viewBox="0 0 3832 1163" fill="none" xmlns="http://www.w3.org/2000/svg">
<path d="M1752.9 773.7C1713.5 773.7 1681.4 765 1656.6 747.6C1631.8 730.2 1616.6 705.7 1611 674.1L1675.2 664.2C1679.2 681 1688.4 694.3 1702.8 704.1C1717.4 713.7 1735.5 718.5 1757.1 718.5C1776.7 718.5 1792 714.5 1803 706.5C1814.2 698.5 1819.8 687.5 1819.8 673.5C1819.8 665.3 1817.8 658.7 1813.8 653.7C1810 648.5 1801.9 643.6 1789.5 639C1777.1 634.4 1758.2 628.7 1732.8 621.9C1705 614.7 1682.9 607 1666.5 598.8C1650.3 590.4 1638.7 580.7 1631.7 569.7C1624.9 558.5 1621.5 545 1621.5 529.2C1621.5 509.6 1626.7 492.5 1637.1 477.9C1647.5 463.3 1662.1 452 1680.9 444C1699.9 436 1722.1 432 1747.5 432C1772.3 432 1794.4 435.9 1813.8 443.7C1833.2 451.5 1848.9 462.6 1860.9 477C1872.9 491.2 1880.1 507.9 1882.5 527.1L1818.3 538.8C1816.1 523.2 1808.8 510.9 1796.4 501.9C1784 492.9 1767.9 488 1748.1 487.2C1729.1 486.4 1713.7 489.6 1701.9 496.8C1690.1 503.8 1684.2 513.5 1684.2 525.9C1684.2 533.1 1686.4 539.2 1690.8 544.2C1695.4 549.2 1704.2 554 1717.2 558.6C1730.2 563.2 1749.4 568.7 1774.8 575.1C1802 582.1 1823.6 589.9 1839.6 598.5C1855.6 606.9 1867 617 1873.8 628.8C1880.8 640.4 1884.3 654.5 1884.3 671.1C1884.3 703.1 1872.6 728.2 1849.2 746.4C1826 764.6 1793.9 773.7 1752.9 773.7Z" fill="#1A1A1A"/>
<path d="M2102.78 774C2071.78 774 2045.78 766.5 2024.78 751.5C2003.78 736.3 1987.88 715.8 1977.08 690C1966.28 664.2 1960.88 635.1 1960.88 602.7C1960.88 570.3 1966.18 541.2 1976.78 515.4C1987.58 489.6 2003.38 469.3 2024.18 454.5C2045.18 439.5 2070.98 432 2101.58 432C2131.98 432 2158.18 439.5 2180.18 454.5C2202.38 469.3 2219.48 489.6 2231.48 515.4C2243.48 541 2249.48 570.1 2249.48 602.7C2249.48 635.1 2243.48 664.3 2231.48 690.3C2219.68 716.1 2202.78 736.5 2180.78 751.5C2158.98 766.5 2132.98 774 2102.78 774ZM1950.38 909V441H2006.18V674.1H2013.38V909H1950.38ZM2094.08 717.3C2114.08 717.3 2130.58 712.2 2143.58 702C2156.78 691.8 2166.58 678.1 2172.98 660.9C2179.58 643.5 2182.88 624.1 2182.88 602.7C2182.88 581.5 2179.58 562.3 2172.98 545.1C2166.58 527.9 2156.68 514.2 2143.28 504C2129.88 493.8 2112.78 488.7 2091.98 488.7C2072.38 488.7 2056.18 493.5 2043.38 503.1C2030.78 512.7 2021.38 526.1 2015.18 543.3C2009.18 560.5 2006.18 580.3 2006.18 602.7C2006.18 625.1 2009.18 644.9 2015.18 662.1C2021.18 679.3 2030.68 692.8 2043.68 702.6C2056.68 712.4 2073.48 717.3 2094.08 717.3Z" fill="#1A1A1A"/>
<path d="M2407.22 774C2383.22 774 2363.12 769.6 2346.92 760.8C2330.72 751.8 2318.42 740 2310.02 725.4C2301.82 710.6 2297.72 694.4 2297.72 676.8C2297.72 660.4 2300.62 646 2306.42 633.6C2312.22 621.2 2320.82 610.7 2332.22 602.1C2343.62 593.3 2357.62 586.2 2374.22 580.8C2388.62 576.6 2404.92 572.9 2423.12 569.7C2441.32 566.5 2460.42 563.5 2480.42 560.7C2500.62 557.9 2520.62 555.1 2540.42 552.3L2517.62 564.9C2518.02 539.5 2512.62 520.7 2501.42 508.5C2490.42 496.1 2471.42 489.9 2444.42 489.9C2427.42 489.9 2411.82 493.9 2397.62 501.9C2383.42 509.7 2373.52 522.7 2367.92 540.9L2309.42 522.9C2317.42 495.1 2332.62 473 2355.02 456.6C2377.62 440.2 2407.62 432 2445.02 432C2474.02 432 2499.22 437 2520.62 447C2542.22 456.8 2558.02 472.4 2568.02 493.8C2573.22 504.4 2576.42 515.6 2577.62 527.4C2578.82 539.2 2579.42 551.9 2579.42 565.5V765H2523.92V690.9L2534.72 700.5C2521.32 725.3 2504.22 743.8 2483.42 756C2462.82 768 2437.42 774 2407.22 774ZM2418.32 722.7C2436.12 722.7 2451.42 719.6 2464.22 713.4C2477.02 707 2487.32 698.9 2495.12 689.1C2502.92 679.3 2508.02 669.1 2510.42 658.5C2513.82 648.9 2515.72 638.1 2516.12 626.1C2516.72 614.1 2517.02 604.5 2517.02 597.3L2537.42 604.8C2517.62 607.8 2499.62 610.5 2483.42 612.9C2467.22 615.3 2452.52 617.7 2439.32 620.1C2426.32 622.3 2414.72 625 2404.52 628.2C2395.92 631.2 2388.22 634.8 2381.42 639C2374.82 643.2 2369.52 648.3 2365.52 654.3C2361.72 660.3 2359.82 667.6 2359.82 676.2C2359.82 684.6 2361.92 692.4 2366.12 699.6C2370.32 706.6 2376.72 712.2 2385.32 716.4C2393.92 720.6 2404.92 722.7 2418.32 722.7Z" fill="#1A1A1A"/>
<path d="M2748.82 774C2724.82 774 2704.72 769.6 2688.52 760.8C2672.32 751.8 2660.02 740 2651.62 725.4C2643.42 710.6 2639.32 694.4 2639.32 676.8C2639.32 660.4 2642.22 646 2648.02 633.6C2653.82 621.2 2662.42 610.7 2673.82 602.1C2685.22 593.3 2699.22 586.2 2715.82 580.8C2730.22 576.6 2746.52 572.9 2764.72 569.7C2782.92 566.5 2802.02 563.5 2822.02 560.7C2842.22 557.9 2862.22 555.1 2882.02 552.3L2859.22 564.9C2859.62 539.5 2854.22 520.7 2843.02 508.5C2832.02 496.1 2813.02 489.9 2786.02 489.9C2769.02 489.9 2753.42 493.9 2739.22 501.9C2725.02 509.7 2715.12 522.7 2709.52 540.9L2651.02 522.9C2659.02 495.1 2674.22 473 2696.62 456.6C2719.22 440.2 2749.22 432 2786.62 432C2815.62 432 2840.82 437 2862.22 447C2883.82 456.8 2899.62 472.4 2909.62 493.8C2914.82 504.4 2918.02 515.6 2919.22 527.4C2920.42 539.2 2921.02 551.9 2921.02 565.5V765H2865.52V690.9L2876.32 700.5C2862.92 725.3 2845.82 743.8 2825.02 756C2804.42 768 2779.02 774 2748.82 774ZM2759.92 722.7C2777.72 722.7 2793.02 719.6 2805.82 713.4C2818.62 707 2828.92 698.9 2836.72 689.1C2844.52 679.3 2849.62 669.1 2852.02 658.5C2855.42 648.9 2857.32 638.1 2857.72 626.1C2858.32 614.1 2858.62 604.5 2858.62 597.3L2879.02 604.8C2859.22 607.8 2841.22 610.5 2825.02 612.9C2808.82 615.3 2794.12 617.7 2780.92 620.1C2767.92 622.3 2756.32 625 2746.12 628.2C2737.52 631.2 2729.82 634.8 2723.02 639C2716.42 643.2 2711.12 648.3 2707.12 654.3C2703.32 660.3 2701.42 667.6 2701.42 676.2C2701.42 684.6 2703.52 692.4 2707.72 699.6C2711.92 706.6 2718.32 712.2 2726.92 716.4C2735.52 720.6 2746.52 722.7 2759.92 722.7Z" fill="#1A1A1A"/>
<path d="M2998.92 765V441H3054.72V519.6L3046.92 509.4C3050.92 499 3056.12 489.5 3062.52 480.9C3068.92 472.1 3076.32 464.9 3084.72 459.3C3092.92 453.3 3102.02 448.7 3112.02 445.5C3122.22 442.1 3132.62 440.1 3143.22 439.5C3153.82 438.7 3164.02 439.2 3173.82 441V499.8C3163.22 497 3151.42 496.2 3138.42 497.4C3125.62 498.6 3113.82 502.7 3103.02 509.7C3092.82 516.3 3084.72 524.3 3078.72 533.7C3072.92 543.1 3068.72 553.6 3066.12 565.2C3063.52 576.6 3062.22 588.7 3062.22 601.5V765H2998.92Z" fill="#1A1A1A"/>
<path d="M3230.65 765L3230.95 333H3294.55V597L3421.75 441H3501.55L3367.15 603L3515.35 765H3430.15L3294.55 609V765H3230.65Z" fill="#1A1A1A"/>
<path d="M3683.44 774C3651.24 774 3622.94 767 3598.54 753C3574.34 738.8 3555.44 719.1 3541.84 693.9C3528.44 668.5 3521.74 639.1 3521.74 605.7C3521.74 570.3 3528.34 539.6 3541.54 513.6C3554.94 487.6 3573.54 467.5 3597.34 453.3C3621.14 439.1 3648.84 432 3680.44 432C3713.44 432 3741.54 439.7 3764.74 455.1C3787.94 470.3 3805.24 492 3816.64 520.2C3828.24 548.4 3832.84 581.9 3830.44 620.7H3767.74V597.9C3767.34 560.3 3760.14 532.5 3746.14 514.5C3732.34 496.5 3711.24 487.5 3682.84 487.5C3651.44 487.5 3627.84 497.4 3612.04 517.2C3596.24 537 3588.34 565.6 3588.34 603C3588.34 638.6 3596.24 666.2 3612.04 685.8C3627.84 705.2 3650.64 714.9 3680.44 714.9C3700.04 714.9 3716.94 710.5 3731.14 701.7C3745.54 692.7 3756.74 679.9 3764.74 663.3L3826.24 682.8C3813.64 711.8 3794.54 734.3 3768.94 750.3C3743.34 766.1 3714.84 774 3683.44 774ZM3567.94 620.7V571.8H3799.24V620.7H3567.94Z" fill="#1A1A1A"/>
<path d="M3231 207H3295V336H3231V207Z" fill="#1A1A1A"/>
<path d="M1950 909H2013V1038H1950V909Z" fill="#1A1A1A"/>
<path d="M1114.12 0H1186.75V1162.06H1114.12V0Z" fill="url(#paint0_linear_1900_3)"/>
<path d="M1535.38 144.531L1586.73 195.888L765.029 1017.59L713.672 966.234L1535.38 144.531Z" fill="url(#paint1_linear_1900_3)"/>
<path d="M713.939 196.098L765.296 144.741L1587 966.444L1535.64 1017.8L713.939 196.098Z" fill="url(#paint2_linear_1900_3)"/>
<path d="M0 617.346V544.717H1162.06V617.346H0Z" fill="#FF2400"/>
<path d="M1223.07 581.031C1223.07 621.143 1190.55 653.66 1150.44 653.66C1110.33 653.66 1077.81 621.143 1077.81 581.031C1077.81 540.919 1110.33 508.402 1150.44 508.402C1190.55 508.402 1223.07 540.919 1223.07 581.031Z" fill="#000BFF"/>
<defs>
<linearGradient id="paint0_linear_1900_3" x1="1915.53" y1="0" x2="1915.53" y2="1162.06" gradientUnits="userSpaceOnUse">
<stop stop-color="#FFD200"/>
<stop offset="0.5" stop-color="#FC0000"/>
<stop offset="1" stop-color="#FFD200"/>
</linearGradient>
<linearGradient id="paint1_linear_1900_3" x1="1915.53" y1="0" x2="1915.53" y2="1162.06" gradientUnits="userSpaceOnUse">
<stop stop-color="#FFD200"/>
<stop offset="0.5" stop-color="#FC0000"/>
<stop offset="1" stop-color="#FFD200"/>
</linearGradient>
<linearGradient id="paint2_linear_1900_3" x1="1915.53" y1="0" x2="1915.53" y2="1162.06" gradientUnits="userSpaceOnUse">
<stop stop-color="#FFD200"/>
<stop offset="0.5" stop-color="#FC0000"/>
<stop offset="1" stop-color="#FFD200"/>
</linearGradient>
</defs>
</svg>
