<svg width="18" height="18" viewBox="0 0 18 18" fill="none" xmlns="http://www.w3.org/2000/svg">
<path d="M0 3.25C0 1.45507 1.45507 0 3.25 0H14.75C16.5449 0 18 1.45507 18 3.25V14.75C18 16.5449 16.5449 18 14.75 18H3.25C1.45507 18 0 16.5449 0 14.75V3.25ZM10.4905 6.49994L5.22232 11.7171C4.928 12.0086 4.92569 12.4834 5.21715 12.7777C5.50862 13.0721 5.98349 13.0744 6.2778 12.7829L11.5 7.61131V12.2499C11.5 12.6642 11.8358 12.9999 12.25 12.9999C12.6642 12.9999 13 12.6642 13 12.2499V5.74994C13 5.33573 12.6642 4.99994 12.25 4.99994H5.75C5.33579 4.99994 5 5.33573 5 5.74994C5 6.16415 5.33579 6.49994 5.75 6.49994H10.4905Z" fill="#0000FF"/>
</svg>
