<?xml version="1.0" encoding="UTF-8"?>
<svg xmlns="http://www.w3.org/2000/svg" viewBox="0 0 1240 700" role="img" aria-labelledby="ex-title ex-desc" font-family="system-ui, -apple-system, 'Segoe UI', Inter, Helvetica, Arial, sans-serif">
  <title id="ex-title">The entity and action model</title>
  <desc id="ex-desc">A spine of matter, project, and invoice at the centre, with the operational entities of a legal department arranged around them and four example relationships labelled, including the engagement relationship that binds the department's matter to the firm's matter.</desc>
  <defs>
    <marker id="arrow" viewBox="0 0 10 10" refX="9" refY="5" markerWidth="7" markerHeight="7" orient="auto-start-reverse">
      <path d="M 0 0 L 10 5 L 0 10 z" fill="#A8C2FF"/>
    </marker>
    <marker id="arrowHot" viewBox="0 0 10 10" refX="9" refY="5" markerWidth="7" markerHeight="7" orient="auto-start-reverse">
      <path d="M 0 0 L 10 5 L 0 10 z" fill="#4C63FF"/>
    </marker>
  </defs>
  <rect x="1" y="1" width="1238" height="698" rx="14" fill="#13132B" stroke="#2A2A52" stroke-width="2"/>
    <text x="620" y="44" text-anchor="middle" font-size="21" fill="#E8ECFF" font-weight="600">The relationships among a department's records are the asset,</text>
    <text x="620" y="70" text-anchor="middle" font-size="21" fill="#E8ECFF" font-weight="600">and most departments hold the records without them.</text>
    <line x1="150" y1="150" x2="400" y2="250" stroke="#A8C2FF" stroke-width="1.5" opacity="0.5"/>
    <line x1="150" y1="330" x2="400" y2="250" stroke="#A8C2FF" stroke-width="1.5" opacity="0.5"/>
    <line x1="150" y1="510" x2="400" y2="250" stroke="#A8C2FF" stroke-width="1.5" opacity="0.5"/>
    <line x1="700" y1="140" x2="400" y2="250" stroke="#A8C2FF" stroke-width="1.5" opacity="0.5"/>
    <line x1="940" y1="140" x2="640" y2="340" stroke="#A8C2FF" stroke-width="1.5" opacity="0.5"/>
    <line x1="400" y1="600" x2="400" y2="430" stroke="#A8C2FF" stroke-width="1.5" opacity="0.5"/>
    <line x1="660" y1="570" x2="400" y2="430" stroke="#A8C2FF" stroke-width="1.5" opacity="0.5"/>
    <line x1="900" y1="500" x2="940" y2="300" stroke="#A8C2FF" stroke-width="1.5" opacity="0.5"/>
    <line x1="940" y1="300" x2="400" y2="250" stroke="#A8C2FF" stroke-width="1.5" opacity="0.5"/>
    <line x1="400" y1="250" x2="400" y2="430" stroke="#A8C2FF" stroke-width="1.5" opacity="0.5"/>
    <line x1="400" y1="430" x2="640" y2="340" stroke="#A8C2FF" stroke-width="1.5" opacity="0.5"/>
    <line x1="640" y1="340" x2="400" y2="250" stroke="#A8C2FF" stroke-width="1.5" opacity="0.5"/>
    <line x1="400" y1="250" x2="1058" y2="250" stroke="#4C63FF" stroke-width="2.6" opacity="0.95"/>
    <rect x="72" y="124" width="156" height="52" rx="26" fill="#262450" stroke="#4060DC" stroke-width="1.8"/>
    <text x="150" y="156" text-anchor="middle" font-size="17" fill="#E8ECFF">Request</text>
    <rect x="72" y="304" width="156" height="52" rx="26" fill="#262450" stroke="#4060DC" stroke-width="1.8"/>
    <text x="150" y="336" text-anchor="middle" font-size="17" fill="#E8ECFF">Communication</text>
    <rect x="72" y="484" width="156" height="52" rx="26" fill="#262450" stroke="#4060DC" stroke-width="1.8"/>
    <text x="150" y="516" text-anchor="middle" font-size="17" fill="#E8ECFF">Document</text>
    <rect x="322" y="574" width="156" height="52" rx="26" fill="#262450" stroke="#4060DC" stroke-width="1.8"/>
    <text x="400" y="606" text-anchor="middle" font-size="17" fill="#E8ECFF">Budget</text>
    <rect x="582" y="544" width="156" height="52" rx="26" fill="#262450" stroke="#4060DC" stroke-width="1.8"/>
    <text x="660" y="576" text-anchor="middle" font-size="17" fill="#E8ECFF">Timekeeper</text>
    <rect x="822" y="474" width="156" height="52" rx="26" fill="#262450" stroke="#4060DC" stroke-width="1.8"/>
    <text x="900" y="506" text-anchor="middle" font-size="17" fill="#E8ECFF">Clause</text>
    <rect x="862" y="274" width="156" height="52" rx="26" fill="#262450" stroke="#4060DC" stroke-width="1.8"/>
    <text x="940" y="306" text-anchor="middle" font-size="17" fill="#E8ECFF">Obligation</text>
    <rect x="622" y="114" width="156" height="52" rx="26" fill="#262450" stroke="#4060DC" stroke-width="1.8"/>
    <text x="700" y="146" text-anchor="middle" font-size="17" fill="#E8ECFF">Party</text>
    <rect x="862" y="114" width="156" height="52" rx="26" fill="#262450" stroke="#4060DC" stroke-width="1.8"/>
    <text x="940" y="146" text-anchor="middle" font-size="17" fill="#E8ECFF">Policy</text>
    <rect x="324" y="220" width="152" height="60" rx="30" fill="#3A3576" stroke="#7B5BFF" stroke-width="2.4"/>
    <text x="400" y="257" text-anchor="middle" font-size="19" fill="#E8ECFF" font-weight="600">Matter</text>
    <rect x="324" y="400" width="152" height="60" rx="30" fill="#3A3576" stroke="#7B5BFF" stroke-width="2.4"/>
    <text x="400" y="437" text-anchor="middle" font-size="19" fill="#E8ECFF" font-weight="600">Invoice</text>
    <rect x="564" y="310" width="152" height="60" rx="30" fill="#3A3576" stroke="#7B5BFF" stroke-width="2.4"/>
    <text x="640" y="347" text-anchor="middle" font-size="19" fill="#E8ECFF" font-weight="600">Project</text>
    <rect x="980" y="224" width="156" height="52" rx="26" fill="#262450" stroke="#4060DC" stroke-width="1.8"/>
    <text x="1058" y="256" text-anchor="middle" font-size="15.5" fill="#E8ECFF">The firm's matter</text>
    <rect x="208.64" y="277" width="132.72" height="22" rx="5" fill="#13132B" opacity="0.94"/>
    <text x="275" y="293" text-anchor="middle" font-size="14" fill="#A8B4D8" font-weight="400">thread to matter</text>
    <rect x="341.06" y="502" width="117.88000000000001" height="22" rx="5" fill="#13132B" opacity="0.94"/>
    <text x="400" y="518" text-anchor="middle" font-size="14" fill="#A8B4D8" font-weight="400">line to budget</text>
    <rect x="838.8" y="387" width="162.4" height="22" rx="5" fill="#13132B" opacity="0.94"/>
    <text x="920" y="403" text-anchor="middle" font-size="14" fill="#A8B4D8" font-weight="400">clause to obligation</text>
    <rect x="684.9" y="237" width="88.2" height="22" rx="5" fill="#13132B" opacity="0.94"/>
    <text x="729" y="253" text-anchor="middle" font-size="14" fill="#4C63FF" font-weight="600">engagement</text>
    <text x="620" y="664" text-anchor="middle" font-size="15" fill="#A8B4D8" font-weight="400" font-style="italic">An ontology adds the relationships, the permitted actions, and the rules that govern them.</text>
</svg>
