<?xml version="1.0" encoding="UTF-8"?>
<svg xmlns="http://www.w3.org/2000/svg" viewBox="0 0 1600 900" preserveAspectRatio="xMidYMid slice" role="img" aria-labelledby="hero-title hero-desc">
  <title id="hero-title">The Legal Operations Intelligence Ontology</title>
  <desc id="hero-desc">A constellation of small geometric nodes joined by fine gold lines on a deep amber field, three heavier hexagons at the center and a single bright gold edge reaching out to a lone node at the right, suggesting an ontology of connected legal entities.</desc>

  <defs>
    <radialGradient id="bg" cx="50%" cy="55%" r="82%">
      <stop offset="0%" stop-color="#6B4D18"/>
      <stop offset="52%" stop-color="#3B290E"/>
      <stop offset="100%" stop-color="#160E05"/>
    </radialGradient>
    <radialGradient id="halo" cx="50%" cy="50%" r="50%">
      <stop offset="0%" stop-color="#F6D488" stop-opacity="0.24"/>
      <stop offset="55%" stop-color="#F6D488" stop-opacity="0.09"/>
      <stop offset="100%" stop-color="#F6D488" stop-opacity="0"/>
    </radialGradient>
    <linearGradient id="plane" x1="0" y1="0" x2="0" y2="1">
      <stop offset="0%" stop-color="#A2742E"/>
      <stop offset="100%" stop-color="#523816"/>
    </linearGradient>
    <linearGradient id="planeMid" x1="0" y1="0" x2="0" y2="1">
      <stop offset="0%" stop-color="#855E24"/>
      <stop offset="100%" stop-color="#523816"/>
    </linearGradient>
    <linearGradient id="planeFocal" x1="0" y1="0" x2="0" y2="1">
      <stop offset="0%" stop-color="#C28F3C"/>
      <stop offset="100%" stop-color="#855E24"/>
    </linearGradient>
    <linearGradient id="planeFlat" x1="0" y1="0" x2="0" y2="1">
      <stop offset="0%" stop-color="#C28F3C"/>
      <stop offset="100%" stop-color="#A2742E"/>
    </linearGradient>
  </defs>

  <rect width="1600" height="900" fill="url(#bg)"/>
  <circle cx="574" cy="486" r="300" fill="url(#halo)"/>
    <line x1="566" y1="372" x2="482" y2="214" stroke="#FBEBC4" stroke-width="1.6" opacity="0.8"/>
    <line x1="566" y1="372" x2="668" y2="258" stroke="#FBEBC4" stroke-width="1.6" opacity="0.8"/>
    <line x1="566" y1="372" x2="330" y2="300" stroke="#FBEBC4" stroke-width="1.6" opacity="0.8"/>
    <line x1="462" y1="552" x2="352" y2="470" stroke="#FBEBC4" stroke-width="1.6" opacity="0.8"/>
    <line x1="462" y1="552" x2="300" y2="636" stroke="#FBEBC4" stroke-width="1.6" opacity="0.8"/>
    <line x1="462" y1="552" x2="520" y2="706" stroke="#FBEBC4" stroke-width="1.6" opacity="0.8"/>
    <line x1="694" y1="534" x2="726" y2="690" stroke="#FBEBC4" stroke-width="1.6" opacity="0.8"/>
    <line x1="694" y1="534" x2="888" y2="566" stroke="#FBEBC4" stroke-width="1.6" opacity="0.8"/>
    <line x1="694" y1="534" x2="806" y2="402" stroke="#FBEBC4" stroke-width="1.6" opacity="0.8"/>
    <line x1="330" y1="300" x2="352" y2="470" stroke="#FBEBC4" stroke-width="1.6" opacity="0.8"/>
    <line x1="806" y1="402" x2="888" y2="566" stroke="#FBEBC4" stroke-width="1.6" opacity="0.8"/>
    <line x1="566" y1="372" x2="462" y2="552" stroke="#FBEBC4" stroke-width="2" opacity="0.85"/>
    <line x1="462" y1="552" x2="694" y2="534" stroke="#FBEBC4" stroke-width="2" opacity="0.85"/>
    <line x1="694" y1="534" x2="566" y2="372" stroke="#FBEBC4" stroke-width="2" opacity="0.85"/>
    <line x1="694" y1="534" x2="1298" y2="452" stroke="#F6D488" stroke-width="3.2" opacity="0.95"/>
    <circle cx="330" cy="300" r="22" fill="#A2742E" stroke="#E4AE4C" stroke-width="1.8"/>
    <circle cx="352" cy="470" r="22" fill="#A2742E" stroke="#E4AE4C" stroke-width="1.8"/>
    <circle cx="300" cy="636" r="22" fill="#A2742E" stroke="#E4AE4C" stroke-width="1.8"/>
    <circle cx="520" cy="706" r="22" fill="#A2742E" stroke="#E4AE4C" stroke-width="1.8"/>
    <circle cx="726" cy="690" r="22" fill="#A2742E" stroke="#E4AE4C" stroke-width="1.8"/>
    <circle cx="806" cy="402" r="22" fill="#A2742E" stroke="#E4AE4C" stroke-width="1.8"/>
    <circle cx="668" cy="258" r="22" fill="#A2742E" stroke="#E4AE4C" stroke-width="1.8"/>
    <circle cx="888" cy="566" r="22" fill="#A2742E" stroke="#E4AE4C" stroke-width="1.8"/>
    <circle cx="482" cy="214" r="22" fill="#A2742E" stroke="#E4AE4C" stroke-width="1.8"/>
    <circle cx="1320" cy="450" r="26" fill="#A2742E" stroke="#F6D488" stroke-width="2.6"/>
    <polygon points="598.91,353 598.91,391 566,410 533.09,391 533.09,353 566,334" fill="#C28F3C" stroke="#F6D488" stroke-width="2.4" stroke-linejoin="round"/>
    <polygon points="494.91,533 494.91,571 462,590 429.09,571 429.09,533 462,514" fill="#C28F3C" stroke="#F6D488" stroke-width="2.4" stroke-linejoin="round"/>
    <polygon points="726.91,515 726.91,553 694,572 661.09,553 661.09,515 694,496" fill="#C28F3C" stroke="#F6D488" stroke-width="2.4" stroke-linejoin="round"/>
</svg>
